Patient4_TMGait_0pt6_02_right_07_GRF.mot
version=1
nRows=66
nColumns=19
inDegrees=no
endheader
time	F1x	F1y	F1z	M1x	M1y	M1z	F2x	F2y	F2z	M2x	M2y	M2z	EC1x	EC1y	EC1z	EC2x	EC2y	EC2z
7.85	-15.6873	720.144	61.3004	-264.389	-57.3407	673.9192	5.6678	1.91	-14.5893	4.759	11.1507	-1.4253	-0.0592	0.0182	-0.0073	-0.0462	0.0165	0.9585
7.8625	-9.3874	714.126	59.1992	-262.5529	-54.1284	667.9695	3.4116	2.1633	-9.9786	3.5719	7.8033	-0.029321	-0.0592	0.0182	-0.0073	-0.0462	0.0165	0.9585
7.875	-3.6653	710.1426	57.3715	-261.3199	-51.1626	663.1587	1.5468	2.4256	-6.0364	2.5721	4.92	1.1937	-0.0592	0.0182	-0.0073	-0.0462	0.0165	0.9585
7.8875	1.1225	709.1395	55.9839	-261.0244	-48.6627	660.3416	0.16048	2.6803	-3.0104	1.8238	2.6926	2.1722	-0.0592	0.0182	-0.0073	-0.0462	0.0165	0.9585
7.9	4.8951	711.469	55.143	-261.8129	-46.7575	659.9217	-0.78553	2.9124	-0.9034	1.3244	1.1345	2.9018	-0.0592	0.0182	-0.0073	-0.0462	0.0165	0.9585
7.9125	7.76	716.8606	54.8397	-263.6187	-45.4401	661.744	-1.3596	3.106	0.41328	1.0336	0.15666	3.4	-0.0592	0.0182	-0.0073	-0.0462	0.0165	0.9585
7.925	9.906	724.5049	55.0232	-266.1834	-44.6453	665.1862	-1.6724	3.2412	1.1125	0.89329	-0.35771	3.7007	-0.0592	0.0182	-0.0073	-0.0462	0.0165	0.9585
7.9375	11.583	733.2816	55.5861	-269.1353	-44.2362	669.3343	-1.8176	3.2692	1.3776	0.83415	-0.53777	3.7888	-0.0592	0.0182	-0.0073	-0.0462	0.0165	0.9585
7.95	13.0416	742.0143	56.4345	-272.0726	-44.0795	673.1909	-1.8894	3.1387	1.3633	0.78821	-0.49105	3.6494	-0.0592	0.0182	-0.0073	-0.0462	0.0165	0.9585
7.9625	14.5326	749.6808	57.448	-274.6432	-44.0116	675.8738	-1.93	2.7612	1.1944	0.68554	-0.31733	3.1976	-0.0592	0.0182	-0.0073	-0.0462	0.0165	0.9585
7.975	16.2573	755.5836	58.5344	-276.6044	-43.9033	676.7908	-1.9756	2.0391	0.96095	0.46055	-0.086579	2.3459	-0.0592	0.0182	-0.0073	-0.0462	0.0165	0.9585
7.9875	18.3511	759.3841	59.5989	-277.8404	-43.6437	675.6705	-2.0142	0.85403	0.72232	0.052692	0.14418	0.97402	-0.0592	0.0182	-0.0073	-0.0462	0.0165	0.9585
8	20.8646	761.0983	60.5791	-278.3579	-43.1707	672.5657	-2.0178	-0.87654	0.52202	-0.58165	0.32259	-0.98921	-0.0592	0.0182	-0.0073	-0.0462	0.0165	0.9585
8.0125	23.7993	761.0447	61.4258	-278.2644	-42.4468	667.8004	-1.9245	-3.1825	0.38135	-1.4586	0.40115	-3.567	-0.0592	0.0182	-0.0073	-0.0462	0.0165	0.9585
8.025	27.0846	759.6804	62.1134	-277.7132	-41.4747	661.8325	-1.6533	-5.9521	0.31791	-2.5357	0.32806	-6.6273	-0.0592	0.0182	-0.0073	-0.0462	0.0165	0.9585
8.0375	30.6002	757.4361	62.6301	-276.8401	-40.288	655.1035	-1.086	-8.8648	0.33433	-3.6844	0.055399	-9.8181	-0.0592	0.0182	-0.0073	-0.0462	0.0165	0.9585
8.05	34.1889	754.5778	62.9762	-275.7136	-38.94	647.931	-0.08969	-11.3088	0.43691	-4.6539	-0.47442	-12.477	-0.0592	0.0182	-0.0073	-0.0462	0.0165	0.9585
8.0625	37.6909	751.1678	63.1845	-274.324	-37.5149	640.4713	1.4639	-12.2519	0.6165	-5.0239	-1.2989	-13.4795	-0.0592	0.0182	-0.0073	-0.0462	0.0165	0.9585
8.075	40.9659	747.1241	63.3103	-272.609	-36.1069	632.7482	3.6727	-10.1745	0.85721	-4.1741	-2.4311	-11.1644	-0.0592	0.0182	-0.0073	-0.0462	0.0165	0.9585
8.0875	43.9436	742.2727	63.4152	-270.4793	-34.7946	624.6904	6.5174	-3.035	1.1191	-1.2744	-3.8111	-3.2908	-0.0592	0.0182	-0.0073	-0.0462	0.0165	0.9585
8.1	46.6141	736.2868	63.5094	-267.807	-33.5907	616.0687	9.8172	11.65	1.3522	4.6804	-5.292	12.8509	-0.0592	0.0182	-0.0073	-0.0462	0.0165	0.9585
8.1125	49.0276	728.609	63.5212	-264.4047	-32.4284	606.4247	13.079	36.529	1.4702	14.7571	-6.5671	40.1575	-0.0592	0.0182	-0.0073	-0.0462	0.0165	0.9585
8.125	51.2388	718.3341	63.2587	-259.9914	-31.1464	595.0035	15.4141	73.8337	1.347	29.8531	-7.1314	81.0663	-0.0592	0.0182	-0.0073	-0.0462	0.0165	0.9585
8.1375	53.2666	704.1189	62.4481	-254.1541	-29.5401	580.6902	15.4333	124.5209	0.81912	50.3435	-6.2591	136.6339	-0.0592	0.0182	-0.0073	-0.0462	0.0165	0.9585
8.15	54.9961	684.1998	60.75	-246.3379	-27.3917	562.0392	11.4949	187.1641	-0.21203	75.6365	-3.2074	205.2993	-0.0592	0.0182	-0.0073	-0.0462	0.0165	0.9585
8.1625	56.1635	656.5865	57.8803	-235.8955	-24.5842	537.452	2.7398	257.1551	-1.9487	103.8385	2.5375	281.9898	-0.0592	0.0182	-0.0073	-0.0462	0.0165	0.9585
8.175	56.3624	619.5073	53.6966	-222.2337	-21.161	505.5354	-9.3215	327.4919	-5.0455	132.0483	11.0323	358.9185	-0.0592	0.0182	-0.0073	-0.0462	0.0165	0.9585
8.1875	55.1449	572.0132	48.306	-205.0208	-17.3795	465.5675	-22.1641	391.5029	-10.0204	157.5196	21.7139	428.4871	-0.0592	0.0182	-0.0073	-0.0462	0.0165	0.9585
8.2	52.1692	514.4915	42.0722	-184.3614	-13.6416	417.8891	-33.8471	446.2745	-16.429	179.0511	33.2946	487.1793	-0.0592	0.0182	-0.0073	-0.0462	0.0165	0.9585
8.2125	47.3164	448.71	35.5366	-160.8311	-10.3926	363.9321	-43.3125	492.5235	-23.7136	196.9377	44.7143	535.6443	-0.0592	0.0182	-0.0073	-0.0462	0.0165	0.9585
8.225	40.6846	377.6343	29.2108	-135.4304	-7.9706	306.0582	-50.1715	532.6753	-30.9929	212.2042	54.8947	576.5163	-0.0592	0.0182	-0.0073	-0.0462	0.0165	0.9585
8.2375	32.5877	305.0577	23.4627	-109.4692	-6.5325	247.2631	-54.5137	569.2777	-37.8403	225.9158	63.4316	612.6364	-0.0592	0.0182	-0.0073	-0.0462	0.0165	0.9585
8.25	23.6186	235.1314	18.4904	-84.4113	-6.005	190.8085	-56.6312	604.1493	-43.8454	238.8519	70.0701	646.0333	-0.0592	0.0182	-0.0073	-0.0462	0.0165	0.9585
8.2625	14.662	171.7637	14.3398	-61.658	-6.0947	139.7467	-56.9575	638.2236	-49.0903	251.4019	75.1115	677.8513	-0.0592	0.0182	-0.0073	-0.0462	0.0165	0.9585
8.275	6.7373	117.8207	10.9304	-42.2585	-6.3592	96.291	-55.9395	671.3994	-53.668	263.5285	78.883	708.1589	-0.0592	0.0182	-0.0073	-0.0462	0.0165	0.9585
8.2875	0.64605	74.6421	8.1296	-26.7188	-6.4028	61.4589	-54.083	702.5316	-57.8559	274.7722	81.8946	735.9765	-0.0592	0.0182	-0.0073	-0.0462	0.0165	0.9585
8.3	-3.2754	42.1845	5.7722	-15.0405	-5.9762	35.1922	-51.868	729.9734	-61.6716	284.4947	84.3798	759.7801	-0.0592	0.0182	-0.0073	-0.0462	0.0165	0.9585
8.3125	-5.15	19.4342	3.7768	-6.8659	-5.0716	16.6937	-49.6391	752.2896	-65.0649	292.1558	86.4308	778.2528	-0.0592	0.0182	-0.0073	-0.0462	0.0165	0.9585
8.325	-5.4595	4.8687	2.1485	-1.6444	-3.8804	4.7711	-47.5474	768.6024	-67.7001	297.4622	87.7771	790.5878	-0.0592	0.0182	-0.0073	-0.0462	0.0165	0.9585
8.3375	-4.8712	-3.2653	0.95539	1.2626	-2.7061	-1.9496	-45.6146	778.6008	-69.3485	300.3497	88.1937	796.5261	-0.0592	0.0182	-0.0073	-0.0462	0.0165	0.9585
8.35	-3.8731	-6.8198	0.18456	2.5211	-1.7206	-4.9509	-43.7802	782.5152	-69.855	300.9572	87.5063	796.3398	-0.0592	0.0182	-0.0073	-0.0462	0.0165	0.9585
8.3625	-2.8017	-7.4213	-0.25151	2.7167	-0.97173	-5.5367	-41.9875	781.0029	-69.3532	299.5717	85.8281	790.7227	-0.0592	0.0182	-0.0073	-0.0462	0.0165	0.9585
8.375	-1.832	-6.3646	-0.43137	2.3176	-0.46299	-4.7697	-40.2175	775.1283	-68.0479	296.626	83.3644	780.765	-0.0592	0.0182	-0.0073	-0.0462	0.0165	0.9585
8.3875	-1.0559	-4.577	-0.46007	1.6598	-0.14134	-3.4054	-38.4535	766.3025	-66.2472	292.6752	80.4307	767.884	-0.0592	0.0182	-0.0073	-0.0462	0.0165	0.9585
8.4	-0.48633	-2.6443	-0.38916	0.95522	0.024764	-1.9192	-36.7199	756.1865	-64.1496	288.3719	77.2475	753.7266	-0.0592	0.0182	-0.0073	-0.0462	0.0165	0.9585
8.4125	-0.11126	-0.91355	-0.28354	0.32532	0.093261	-0.58579	-35.015	746.4964	-61.936	284.3879	74.004	739.9642	-0.0592	0.0182	-0.0073	-0.0462	0.0165	0.9585
8.425	0.10916	0.46006	-0.16702	-0.17594	0.093762	0.47799	-33.3148	738.7366	-59.7093	281.31	70.7996	728.035	-0.0592	0.0182	-0.0073	-0.0462	0.0165	0.9585
8.4375	0.22192	1.4638	-0.075676	-0.54417	0.072251	1.2635	-31.5796	733.9614	-57.5759	279.5476	67.7248	718.9134	-0.0592	0.0182	-0.0073	-0.0462	0.0165	0.9585
8.45	0.26062	2.1402	-0.008587	-0.7932	0.03659	1.8244	-29.7515	732.7324	-55.5739	279.3159	64.7966	713.0845	-0.0592	0.0182	-0.0073	-0.0462	0.0165	0.9585
8.4625	0.2566	2.5529	0.020701	-0.94577	0.01265	2.2052	-27.7781	735.1377	-53.726	280.6365	62.0151	710.5822	-0.0592	0.0182	-0.0073	-0.0462	0.0165	0.9585
8.475	0.21642	2.7945	0.028284	-1.0307	-0.0062687	2.4753	-25.6256	740.8505	-52.0135	283.3609	59.3417	711.0546	-0.0592	0.0182	-0.0073	-0.0462	0.0165	0.9585
8.4875	0.15862	2.9208	0.012442	-1.0704	-0.0077043	2.654	-23.2863	749.2172	-50.4317	287.1969	56.7526	713.8702	-0.0592	0.0182	-0.0073	-0.0462	0.0165	0.9585
8.5	0.08273	2.9875	-0.009115	-1.0844	-0.0089507	2.7871	-20.7688	759.263	-49.007	291.7143	54.2494	718.1212	-0.0592	0.0182	-0.0073	-0.0462	0.0165	0.9585
8.5125	0.0034443	3.0114	-0.035925	-1.0819	-0.0054837	2.8799	-18.0914	769.7371	-47.8024	296.3687	51.8701	722.6702	-0.0592	0.0182	-0.0073	-0.0462	0.0165	0.9585
8.525	-0.085554	2.9906	-0.050989	-1.0634	-0.016257	2.9412	-15.2488	779.2657	-46.8867	300.5678	49.6537	726.2781	-0.0592	0.0182	-0.0073	-0.0462	0.0165	0.9585
8.5375	-0.18269	2.9098	-0.051202	-1.0257	-0.04443	2.9443	-12.221	786.4963	-46.3175	303.738	47.6296	727.7489	-0.0592	0.0182	-0.0073	-0.0462	0.0165	0.9585
8.55	-0.29606	2.7292	-0.017716	-0.95452	-0.11248	2.8418	-9.0011	790.3008	-46.1186	305.4156	45.8127	726.1058	-0.0592	0.0182	-0.0073	-0.0462	0.0165	0.9585
8.5625	-0.43395	2.3775	0.047261	-0.82601	-0.21852	2.5384	-5.5793	790.0334	-46.2436	305.3419	44.165	720.8225	-0.0592	0.0182	-0.0073	-0.0462	0.0165	0.9585
8.575	-0.58985	1.7723	0.15302	-0.60977	-0.37451	1.9326	-1.9738	785.6066	-46.6191	303.4913	42.639	711.8901	-0.0592	0.0182	-0.0073	-0.0462	0.0165	0.9585
8.5875	-0.75368	0.82945	0.28623	-0.27442	-0.56665	0.93097	1.755	777.4726	-47.1542	300.0629	41.1871	699.779	-0.0592	0.0182	-0.0073	-0.0462	0.0165	0.9585
8.6	-0.86712	-0.50997	0.44156	0.2033	-0.77233	-0.53468	5.5049	766.5431	-47.7879	295.4363	39.8082	685.379	-0.0592	0.0182	-0.0073	-0.0462	0.0165	0.9585
8.6125	-0.87131	-2.2484	0.59189	0.82667	-0.93775	-2.4502	9.1637	753.9993	-48.4909	290.0971	38.5322	669.7992	-0.0592	0.0182	-0.0073	-0.0462	0.0165	0.9585
8.625	-0.6541	-4.2807	0.69195	1.5614	-0.9703	-4.7105	12.6093	741.1456	-49.2801	284.5745	37.4242	654.2355	-0.0592	0.0182	-0.0073	-0.0462	0.0165	0.9585
8.6375	-0.097995	-6.3305	0.67426	2.309	-0.74737	-7.0197	15.7647	729.2936	-50.189	279.3921	36.5476	639.8573	-0.0592	0.0182	-0.0073	-0.0462	0.0165	0.9585
8.65	0.95904	-7.9157	0.45125	2.8835	-0.11313	-8.8568	18.5774	719.5736	-51.2646	274.9996	35.9667	627.6562	-0.0592	0.0182	-0.0073	-0.0462	0.0165	0.9585
8.6625	2.6551	-8.246	-0.079856	2.9834	1.0975	-9.3424	21.0305	712.7838	-52.5234	271.7161	35.7014	618.3142	-0.0592	0.0182	-0.0073	-0.0462	0.0165	0.9585
